<svg xmlns="http://www.w3.org/2000/svg" width="28" height="32"><path fill="#95e1d3" d="M26.5 16.5h-3A1.5 1.5 0 0 1 22 15V9a1.5 1.5 0 0 1 1.5-1.5h3A1.5 1.5 0 0 1 28 9v6a1.5 1.5 0 0 1-1.5 1.5zm-3-15a1.5 1.5 0 0 1 3 0V6h-3V1.5zm-8 23h-3A1.5 1.5 0 0 1 11 23v-6a1.5 1.5 0 0 1 1.5-1.5h3A1.5 1.5 0 0 1 17 17v6a1.5 1.5 0 0 1-1.5 1.5zm-3-23a1.5 1.5 0 0 1 3 0V14h-3V1.5zm-8 19h-3A1.5 1.5 0 0 1 0 19v-6a1.5 1.5 0 0 1 1.5-1.5h3A1.5 1.5 0 0 1 6 13v6a1.5 1.5 0 0 1-1.5 1.5zm-3-19a1.5 1.5 0 0 1 3 0V10h-3V1.5zm3 29a1.5 1.5 0 0 1-3 0V22h3v8.5zm11 0a1.5 1.5 0 0 1-3 0V26h3v4.5zm11 0a1.5 1.5 0 0 1-3 0V18h3v12.5z"/></svg>