<svg xmlns="http://www.w3.org/2000/svg" width="16" height="16"><path d="M15.837 6.4a7.9 7.9 0 0 0-.466-1.5 8.22 8.22 0 0 0-.738-1.36 8.093 8.093 0 0 0-.976-1.18 8.443 8.443 0 0 0-1.184-.98 7.971 7.971 0 0 0-8.947 0 8.434 8.434 0 0 0-1.183.98 8.093 8.093 0 0 0-.976 1.18A8.22 8.22 0 0 0 .629 4.9a7.9 7.9 0 0 0-.467 1.5 8.131 8.131 0 0 0 0 3.23 7.9 7.9 0 0 0 .467 1.5 8.22 8.22 0 0 0 .738 1.36 8.093 8.093 0 0 0 .976 1.18 8.434 8.434 0 0 0 1.183.98 7.971 7.971 0 0 0 8.947 0 8.443 8.443 0 0 0 1.184-.98 8.093 8.093 0 0 0 .976-1.18 8.22 8.22 0 0 0 .738-1.36 7.9 7.9 0 0 0 .466-1.5 8.082 8.082 0 0 0 0-3.23zM14.83 7.95a15.962 15.962 0 0 0-4.759-.23 20.156 20.156 0 0 0-.601-1.34 8.874 8.874 0 0 0 3.807-2.7 6.794 6.794 0 0 1 1.553 4.27zm-2.317-5.06a7.451 7.451 0 0 1-3.569 2.47A34.349 34.349 0 0 0 6.39 1.38 6.581 6.581 0 0 1 8 1.18a6.812 6.812 0 0 1 4.513 1.71zM6.364 1.38a.039.039 0 0 0-.02.01.022.022 0 0 1 .02-.01zm-1.279.46a40.568 40.568 0 0 1 2.537 3.93 25.7 25.7 0 0 1-6.308.84 6.831 6.831 0 0 1 3.771-4.77zM1.168 8.01V7.8a25.209 25.209 0 0 0 7.015-.97c.2.38.383.77.554 1.16a2.662 2.662 0 0 0-.269.08 10.8 10.8 0 0 0-5.557 4.51 6.807 6.807 0 0 1-1.743-4.57zM8 14.85a6.8 6.8 0 0 1-4.352-1.57l.153.12a9.25 9.25 0 0 1 5.362-4.27c.015 0 .03-.01.045-.01a28.411 28.411 0 0 1 1.459 5.19A6.951 6.951 0 0 1 8 14.85zm3.818-1.17a29.625 29.625 0 0 0-1.33-4.88 9.871 9.871 0 0 1 4.258.3 6.827 6.827 0 0 1-2.928 4.58z"/></svg>