<svg xmlns="http://www.w3.org/2000/svg" width="16" height="13"><path d="M10.883.02a3.343 3.343 0 0 1 2.594 1.03 5.48 5.48 0 0 0 1.682-.57c.136-.08.272-.15.409-.22a3.349 3.349 0 0 1-1.066 1.54 1.562 1.562 0 0 1-.36.25v.01A6.37 6.37 0 0 0 16 1.56a5.263 5.263 0 0 1-1.113 1.28c-.171.14-.342.27-.513.41a9.429 9.429 0 0 1-.152 2.11 9.172 9.172 0 0 1-6.43 7.25 9.78 9.78 0 0 1-4.645.2 12.622 12.622 0 0 1-1.93-.63 8.359 8.359 0 0 1-.929-.48L0 11.52a5.155 5.155 0 0 0 1.049.04c.323-.05.639-.04.937-.1a7 7 0 0 0 1.97-.71 3.459 3.459 0 0 0 .889-.59 2.867 2.867 0 0 1-.977-.17 3.32 3.32 0 0 1-2.082-2.1 3.225 3.225 0 0 0 1.465-.07 2.313 2.313 0 0 1-1.073-.43A3.15 3.15 0 0 1 .633 4.58c.112.06.224.11.336.16a3.43 3.43 0 0 0 .689.19.846.846 0 0 0 .448.04H2.09c-.165-.19-.435-.32-.6-.52a3.356 3.356 0 0 1-.736-2.98 3.825 3.825 0 0 1 .352-.86.015.015 0 0 0 .016.01 2.144 2.144 0 0 0 .3.35 6.58 6.58 0 0 0 .977.93 9.684 9.684 0 0 0 4.012 1.94 6.152 6.152 0 0 0 1.474.19 3.043 3.043 0 0 1 .016-1.54A3.214 3.214 0 0 1 9.759.29a3.949 3.949 0 0 1 .728-.23c.129-.01.262-.03.396-.04z"/></svg>